<svg xmlns="http://www.w3.org/2000/svg" viewBox="0 0 128 128" id="digital-marketing"><rect width="26.44" height="17.81" x="50.84" y="103.35" fill="#6288cc"></rect><rect width="113.39" height="73.78" x="7.3" y="32.88" fill="#a8b7ee" rx="5.59"></rect><path fill="#3b579f" d="M120.7,38.47V91.68H7.3V38.47a5.59,5.59,0,0,1,5.59-5.59H115.11A5.59,5.59,0,0,1,120.7,38.47Z"></path><polygon fill="#ff4155" points="113.84 37.63 107.93 36.46 104.74 45.47 111.2 46.53 113.84 37.63"></polygon><path fill="#ffb331" d="M78.9,26.3a7.7,7.7,0,1,0,8.94-6.21A7.7,7.7,0,0,0,78.9,26.3Z"></path><path fill="#bdcbf5" d="M91.21,15.54a35.91,35.91,0,0,0,18.46,10.08c1.61,4.66.34,8.51-2.16,12a35.87,35.87,0,0,0-20.81,3C85.2,31.2,86.53,22.75,91.21,15.54Z"></path><path fill="#e10459" d="M111.19,26.55h8.95a0,0,0,0,1,0,0v12.2a0,0,0,0,1,0,0h-8.95a2.69,2.69,0,0,1-2.69-2.69V29.25a2.69,2.69,0,0,1,2.69-2.69Z" transform="rotate(-169.83 114.32 32.654)"></path><path fill="#e10459" d="M83.78,42.71h0a2.5,2.5,0,0,0,2.92-2l4.51-25.14a2.52,2.52,0,0,0-2-2.93h0a2.53,2.53,0,0,0-2.93,2L81.74,39.79A2.52,2.52,0,0,0,83.78,42.71Z"></path><rect width="39.7" height="31.5" x="16.78" y="11.82" fill="#e10459"></rect><path fill="#dbdfee" d="M29.54,22.66v9.82a2.67,2.67,0,0,0,4,2.34l8.85-4.92a2.66,2.66,0,0,0,0-4.66L33.5,20.33A2.66,2.66,0,0,0,29.54,22.66Z"></path><rect width="47.22" height="30.97" x="16.78" y="50.4" fill="#ff9102"></rect><polyline fill="#ffb331" points="16.78 50.4 40.39 65.88 64 50.4"></polyline><rect width="32.41" height="22.52" x="71.72" y="50.4" fill="#ffdc41"></rect><rect width="32.41" height="22.52" x="81.02" y="58.85" fill="#fbefbc"></rect><path d="M121.32,35.1l.81-4.5a4.2,4.2,0,0,0-3.38-4.88c-3.78-1.41-15.48-.25-26-10.75a4,4,0,0,0-8-.58L84,18.84A9.22,9.22,0,0,0,77.42,26a9.07,9.07,0,0,0,.65,5.34H58V11.82a1.5,1.5,0,0,0-1.5-1.5H16.78a1.5,1.5,0,0,0-1.5,1.5V31.38H12.89A7.1,7.1,0,0,0,5.8,38.47v62.6a7.1,7.1,0,0,0,7.09,7.09h5.05a1.5,1.5,0,0,0,0-3H12.89a4.09,4.09,0,0,1-4.09-4.09V93.18H79.61a1.5,1.5,0,1,0,0-3H8.8V38.47a4.09,4.09,0,0,1,4.09-4.09h2.39v8.94a1.5,1.5,0,0,0,1.5,1.5h39.7a1.5,1.5,0,0,0,1.5-1.5V34.38H80.25c.26.24.52.47.81.69l-.8,4.46A4,4,0,0,0,88,41.74a35.27,35.27,0,0,1,17.54-2.88L103.33,45a1.5,1.5,0,0,0,1.17,2c5.88,1,6.51,1.08,6.7,1.08A1.5,1.5,0,0,0,112.64,47l1.94-6.54,1.47.27a4.21,4.21,0,0,0,3.14-.68h0V90.18h-7.34a1.5,1.5,0,0,0,0,3h7.34v7.89a4.09,4.09,0,0,1-4.09,4.09H27.78a1.5,1.5,0,0,0,0,3H49.34v11.5H41.25a1.5,1.5,0,0,0,0,3H86.87a1.5,1.5,0,0,0,0-3H78.78v-11.5h36.33a7.1,7.1,0,0,0,7.09-7.09V38.47A6.94,6.94,0,0,0,121.32,35.1ZM55,41.82H18.28V13.32H55Zm20.8,77.84H52.34v-11.5H75.78Zm4.6-93.09a6.19,6.19,0,0,1,3-4.25l-1.66,9.26A6.07,6.07,0,0,1,80.38,26.57ZM84,41.23a1,1,0,0,1-.82-1.18C87,19,81.9,47.38,87.73,14.92a1,1,0,0,1,1.18-.83,1,1,0,0,1,.82,1.18h0L85.22,40.42A1,1,0,0,1,84,41.23Zm4.63-3c.36-2-1.3,7.26,3.52-19.61a37.94,37.94,0,0,0,15.74,8.22l-1.64,9.14A37.76,37.76,0,0,0,88.67,38.18Zm21.47,6.66-3.39-.56,1.75-5,3.1.56Zm6.44-7.11-7.33-1.31,1.63-9.06,7.34,1.32a1.18,1.18,0,0,1,1,1.38h0L118,36.78A1.18,1.18,0,0,1,116.58,37.73Z"></path><path d="M89.46 93.18H102a1.5 1.5 0 000-3H89.46a1.5 1.5 0 100 3zM68.79 100.87a1.5 1.5 0 100-3H59.21a1.5 1.5 0 000 3zM66.58 26l5 .9a1.5 1.5 0 00.53-3l-5-.89A1.5 1.5 0 0066.58 26zM76.5 16.58A1.5 1.5 0 0079 14.86l-2.91-4.17A1.5 1.5 0 1073.6 12.4zM71.22 40.54l4.17-2.9a1.5 1.5 0 00-1.71-2.47l-4.17 2.91a1.5 1.5 0 101.71 2.46zM43.08 23.93L34.23 19A4.16 4.16 0 0028 22.66v9.82a4.16 4.16 0 006.19 3.65l8.85-4.91a4.17 4.17 0 000-7.29zm-1.46 4.66l-8.85 4.92a1.17 1.17 0 01-1.73-1V22.66a1.16 1.16 0 011.73-1l8.85 4.91A1.17 1.17 0 0141.62 28.59zM16.78 82.87H64a1.5 1.5 0 001.5-1.5V50.42A1.48 1.48 0 0064 48.9H16.77a1.5 1.5 0 00-1.49 1.5h0v31A1.5 1.5 0 0016.78 82.87zm1.5-3V53.17l21.29 14a1.52 1.52 0 001.64 0l21.29-14v26.7zm3.52-28H59L40.39 64.09zM81 82.87h32.41a1.5 1.5 0 001.5-1.5V58.85a1.5 1.5 0 00-1.5-1.5h-7.8v-7a1.5 1.5 0 00-1.5-1.5H71.72a1.5 1.5 0 00-1.5 1.5V72.92a1.5 1.5 0 001.5 1.5h7.8v7A1.5 1.5 0 0081 82.87zm30.91-3H82.52V60.35h29.41zM73.22 71.42V51.9h29.41v5.45H81a1.5 1.5 0 00-1.5 1.5V71.42z"></path><path d="M86.92 65.74h2.8a1.5 1.5 0 100-3h-2.8a1.5 1.5 0 000 3zM92.9 64.24a1.5 1.5 0 001.5 1.5h13.12a1.5 1.5 0 100-3H94.4A1.5 1.5 0 0092.9 64.24zM89.72 74.47h-2.8a1.5 1.5 0 100 3h2.8a1.5 1.5 0 000-3zM107.52 74.47H94.4a1.5 1.5 0 000 3h13.12a1.5 1.5 0 100-3zM107.52 68.61h-2.79a1.5 1.5 0 000 3h2.79a1.5 1.5 0 000-3zM86.92 71.61h13.13a1.5 1.5 0 000-3H86.92a1.5 1.5 0 000 3z"></path></svg>